<svg width="16" height="16" viewBox="0 0 16 16" fill="none" xmlns="http://www.w3.org/2000/svg">
<circle cx="8" cy="8" r="7" stroke="#FD6036" stroke-width="2"/>
<path d="M8.66791 6.23166L7.50824 5.36096C6.9809 4.96502 6.22791 5.34128 6.22791 6.00071V9.99861C6.22791 10.658 6.9809 11.0343 7.50824 10.6384L8.66791 9.76766L10.1733 8.63992C10.6004 8.31993 10.6004 7.67938 10.1733 7.3594L8.66791 6.23166ZM8.66791 6.23166L7.50824 5.36096C6.9809 4.96502 6.22791 5.34128 6.22791 6.00071V9.99861C6.22791 10.658 6.9809 11.0343 7.50824 10.6384L8.66791 9.76766L10.1733 8.63992C10.6004 8.31993 10.6004 7.67938 10.1733 7.3594L8.66791 6.23166ZM8.66791 6.23166L7.50824 5.36096C6.9809 4.96502 6.22791 5.34128 6.22791 6.00071V9.99861C6.22791 10.658 6.9809 11.0343 7.50824 10.6384L8.66791 9.76766L10.1733 8.63992C10.6004 8.31993 10.6004 7.67938 10.1733 7.3594L8.66791 6.23166Z" fill="#FD6036"/>
</svg>
